<svg xmlns="http://www.w3.org/2000/svg" version="1.1" xmlns:xlink="http://www.w3.org/1999/xlink" xmlns:svgjs="http://svgjs.dev/svgjs" width="1000" height="287" viewBox="0 0 1000 287"><g transform="matrix(1,0,0,1,0.11480332184243025,0.06463603779070581)"><svg viewBox="0 0 358 103" data-background-color="#ffffff" preserveAspectRatio="xMidYMid meet" height="287" width="1000" xmlns="http://www.w3.org/2000/svg" xmlns:xlink="http://www.w3.org/1999/xlink"><g id="tight-bounds" transform="matrix(1,0,0,1,-0.04109958921958423,-0.023195245251429242)"><svg viewBox="0 0 358.0821910490574 103.04639215079999" height="103.04639215079999" width="358.0821910490574"><g><svg viewBox="0 0 358.0821910490574 103.04639215079999" height="103.04639215079999" width="358.0821910490574"><g><svg viewBox="0 0 358.0821910490574 103.04639215079999" height="103.04639215079999" width="358.0821910490574"><g id="textblocktransform"><svg viewBox="0 0 358.0821910490574 103.04639215079999" height="103.04639215079999" width="358.0821910490574" id="textblock"><g><svg viewBox="0 0 358.0821910490574 55.5783" height="55.5783" width="358.0821910490574"><g><svg><g></g><g></g></svg></g><g><svg><g><svg></svg></g><g></g></svg></g><g id="text-0"><svg viewBox="0 0 358.0821910490574 55.5783" height="55.5783" width="358.0821910490574"><g transform="matrix(1,0,0,1,0,0)"><svg width="186.39360000000002" viewBox="4 -34 115.19000244140625 34.349998474121094" height="55.5783" data-palette-color="#1c4b82"><path d="M21.95-2.85L21.95 0 4 0 4-33.7 7.1-33.7 7.1-2.85 21.95-2.85ZM31.05-33.7L31.05 0 27.95 0 27.95-33.7 31.05-33.7ZM42.4-14.25L42.4 0 39.3 0 39.3-33.7 43.55-33.7 52.15-19.45 61.65-3.65Q61.55-8.85 61.55-19.4L61.55-19.4 61.55-33.7 64.65-33.7 64.65 0 60.4 0 51.84-14.15 42.3-30.05Q42.4-24.65 42.4-14.25L42.4-14.25ZM80.59-16.6L94.59 0 90.49 0 76.64-16.6 89.99-33.7 93.89-33.7 80.59-16.6ZM75.74-33.7L75.74 0 72.64 0 72.64-33.7 75.74-33.7ZM119.19-8.7L119.19-8.7Q119.19-4.3 116.24-1.98 113.29 0.35 108.69 0.35L108.69 0.35Q103.49 0.35 99.84-1.85L99.84-1.85 99.84-5.3Q101.34-4.15 103.72-3.4 106.09-2.65 108.54-2.65L108.54-2.65Q112.09-2.65 114.07-4.2 116.04-5.75 116.04-8.65L116.04-8.65Q116.04-10.85 114.54-12.23 113.04-13.6 110.19-14.85L110.19-14.85Q109.79-15.05 108.44-15.63 107.09-16.2 106.54-16.45 105.99-16.7 104.84-17.3 103.69-17.9 103.17-18.35 102.64-18.8 101.84-19.55 101.04-20.3 100.69-21.05 100.34-21.8 100.04-22.83 99.74-23.85 99.74-25L99.74-25Q99.74-29.25 102.79-31.63 105.84-34 110.24-34L110.24-34Q114.44-34 117.24-32.5L117.24-32.5 117.24-29.05Q116.04-29.85 114.09-30.4 112.14-30.95 110.29-30.95L110.29-30.95Q106.94-30.95 104.94-29.38 102.94-27.8 102.94-25.2L102.94-25.2Q102.94-23.85 103.47-22.8 103.99-21.75 105.24-20.88 106.49-20 107.42-19.53 108.34-19.05 110.24-18.25L110.24-18.25Q111.99-17.5 112.89-17.07 113.79-16.65 115.19-15.75 116.59-14.85 117.32-13.98 118.04-13.1 118.62-11.73 119.19-10.35 119.19-8.7Z" opacity="1" transform="matrix(1,0,0,1,0,0)" fill="#1c4b82" class="undefined-text-0" data-fill-palette-color="primary"></path></svg></g><g><svg xmlns="http://www.w3.org/2000/svg" xmlns:xlink="http://www.w3.org/1999/xlink" version="1.1" x="199.51530000000002" y="3.552713678800501e-15" viewBox="5.50200080871582 76.3010025024414 238.99598693847656 83.76900482177734" enable-background="new 0 0 250 250" xml:space="preserve" height="55.57829999999999" width="158.56689104905738" class="icon-s-0" data-fill-palette-color="accent" id="s-0"><path d="M90.076 103.584H25.374c-10.975 0-19.872 6.538-19.872 14.602s8.897 14.602 19.872 14.602h64.702c10.975 0 19.872-6.538 19.872-14.602S101.051 103.584 90.076 103.584z" fill="#1c4b82" data-fill-palette-color="accent"></path><path d="M224.627 103.583h-64.701c-10.977 0-19.873 6.538-19.873 14.602s8.896 14.602 19.873 14.602h64.701c10.975 0 19.871-6.538 19.871-14.602S235.602 103.583 224.627 103.583z" fill="#1c4b82" data-fill-palette-color="accent"></path><g fill="#1c4b82" data-fill-palette-color="accent"><path d="M92.187 100.564c3.24-2.066 7.085-3.269 11.213-3.269H146.6c4.129 0 7.973 1.203 11.213 3.269h26.127c-6.656-14.326-21.162-24.263-37.998-24.263h-41.883c-16.835 0-31.342 9.938-37.997 24.263H92.187z" fill="#1c4b82" data-fill-palette-color="accent"></path><path d="M157.812 135.807c-3.24 2.065-7.084 3.269-11.213 3.269H103.4c-4.127 0-7.972-1.203-11.212-3.269H66.062c6.655 14.325 21.162 24.263 37.997 24.263h41.883c16.836 0 31.342-9.938 37.998-24.263H157.812z" fill="#1c4b82" data-fill-palette-color="accent"></path></g></svg></g></svg></g></svg></g><g transform="matrix(1,0,0,1,72.83580437678098,68.69900275079999)"><svg viewBox="0 0 212.41058229549546 34.3473894" height="34.3473894" width="212.41058229549546"><g transform="matrix(1,0,0,1,0,0)"><svg width="212.41058229549546" viewBox="-10.399999618530273 -37.45000076293945 308.8599853515625 49.95000076293945" height="34.3473894" data-palette-color="#1c4b82"><path d="M13.35-37.45L13.35-37.45Q15.8-37.45 17.53-35.9 19.25-34.35 19.25-32.05L19.25-32.05Q19.25-31.45 19.23-30.95 19.2-30.45 19.1-30L19.1-30 16.75-30Q16.85-30.8 16.85-30.98 16.85-31.15 16.85-31.35L16.85-31.35Q16.85-32.15 16.32-32.6 15.8-33.05 14.95-33.05L14.95-33.05Q13.7-33.05 12.78-32 11.85-30.95 11.45-28.95L11.45-28.95 10.6-25 14.25-25 13.9-23 10.2-23 4.45 4Q3.55 8.25 1.3 10.38-0.95 12.5-4.5 12.5L-4.5 12.5Q-6.95 12.5-8.68 10.95-10.4 9.4-10.4 7.1L-10.4 7.1Q-10.4 4.5-8.68 2.85-6.95 1.2-1.8-0.4L-1.8-0.4 4.25-28.95Q5.15-33.15 7.45-35.3 9.75-37.45 13.35-37.45ZM-2.8 4.15L-2.15 1.25Q-5.05 2.2-6.35 3.45-7.65 4.7-7.65 6.4L-7.65 6.4Q-7.65 7-7.03 7.53-6.4 8.05-5.65 8.05L-5.65 8.05Q-4.7 8.05-3.95 7.05-3.2 6.05-2.8 4.15L-2.8 4.15ZM29.6-22.7L29.6-22.7 29.6-22.35 30.15-25 37.35-25 33.75-8Q33.65-7.55 33.6-7.18 33.55-6.8 33.55-6.4L33.55-6.4Q33.55-5.3 34.05-4.78 34.55-4.25 35.6-4.25L35.6-4.25Q36.9-4.25 37.95-5.48 39-6.7 39.65-8.95L39.65-8.95 41.75-8.95Q40.15-4.35 37.6-2.02 35.05 0.3 31.7 0.3L31.7 0.3Q29.55 0.3 28.27-0.9 27-2.1 26.8-4.3L26.8-4.3Q25.25-2 23.37-0.85 21.5 0.3 19.35 0.3L19.35 0.3Q16.25 0.3 14.47-1.8 12.7-3.9 12.7-7.75L12.7-7.75Q12.7-10.55 13.55-13.6 14.4-16.65 15.9-19.15L15.9-19.15Q17.75-22.1 20.2-23.68 22.65-25.25 25.55-25.25L25.55-25.25Q27.5-25.25 28.55-24.58 29.6-23.9 29.6-22.7ZM26.75-8.95L29.15-20.25Q29.15-21 28.6-21.58 28.05-22.15 27.1-22.15L27.1-22.15Q24.35-22.15 22.22-17.55 20.1-12.95 20.1-8.45L20.1-8.45Q20.1-6.5 20.65-5.53 21.2-4.55 22.6-4.55L22.6-4.55Q23.9-4.55 25.12-5.8 26.35-7.05 26.75-8.95L26.75-8.95ZM55.25-8.35L55.25-8.35Q55.25-7.75 55.2-7.3 55.15-6.85 55.05-6.45L55.05-6.45Q56.05-7.05 57-7.7 57.95-8.35 58.65-8.95L58.65-8.95 60.75-8.95Q59.2-7.15 57.32-5.63 55.45-4.1 53.09-2.7L53.09-2.7Q51.75-1.25 49.65-0.48 47.55 0.3 45.25 0.3L45.25 0.3Q41.9 0.3 39.92-1.53 37.95-3.35 37.95-6.1L37.95-6.1Q37.95-7.65 38.7-8.93 39.45-10.2 40.59-10.75L40.59-10.75Q42.3-13.8 43.77-17.28 45.25-20.75 46.75-25.55L46.75-25.55 54.15-26.55Q54.3-22.8 54.5-19.7 54.7-16.6 55-12.95L55-12.95Q55.15-10.85 55.2-10 55.25-9.15 55.25-8.35ZM47.05-20.15L47.05-20.15Q46.4-18.1 45.47-15.88 44.55-13.65 43-10.7L43-10.7Q43.55-10.45 43.84-10 44.15-9.55 44.15-8.95L44.15-8.95Q44.15-8 43.5-7.25 42.84-6.5 41.95-6.5L41.95-6.5Q41.45-6.5 41.09-6.68 40.75-6.85 40.59-7.15L40.59-7.15Q40.59-5.3 41.32-4.48 42.05-3.65 43.65-3.65L43.65-3.65Q45.7-3.65 46.84-4.85 48-6.05 48-8.3L48-8.3Q48-9 47.95-9.73 47.9-10.45 47.75-12.15L47.75-12.15Q47.5-14.5 47.34-16.3 47.2-18.1 47.05-20.15ZM59.99-23L60.39-25 62.04-25 63.54-31.9 70.94-32.9 69.24-25 72.24-25 71.84-23 68.84-23 65.64-8Q65.54-7.55 65.49-7.18 65.44-6.8 65.44-6.4L65.44-6.4Q65.44-5.4 65.92-4.98 66.39-4.55 67.49-4.55L67.49-4.55Q68.89-4.55 70.14-5.78 71.39-7 71.99-8.95L71.99-8.95 74.09-8.95Q72.49-4.4 69.79-2.05 67.09 0.3 63.59 0.3L63.59 0.3Q61.09 0.3 59.67-1.28 58.24-2.85 58.24-5.7L58.24-5.7Q58.24-6.35 58.34-7.18 58.44-8 58.64-8.95L58.64-8.95 61.64-23 59.99-23ZM99.09-22.7L99.09-22.7 99.09-22.35 99.64-25 106.84-25 103.24-8Q103.14-7.55 103.09-7.18 103.04-6.8 103.04-6.4L103.04-6.4Q103.04-5.3 103.54-4.78 104.04-4.25 105.09-4.25L105.09-4.25Q106.39-4.25 107.44-5.48 108.49-6.7 109.14-8.95L109.14-8.95 111.24-8.95Q109.64-4.35 107.09-2.02 104.54 0.3 101.19 0.3L101.19 0.3Q99.04 0.3 97.76-0.9 96.49-2.1 96.29-4.3L96.29-4.3Q94.74-2 92.86-0.85 90.99 0.3 88.84 0.3L88.84 0.3Q85.74 0.3 83.96-1.8 82.19-3.9 82.19-7.75L82.19-7.75Q82.19-10.55 83.04-13.6 83.89-16.65 85.39-19.15L85.39-19.15Q87.24-22.1 89.69-23.68 92.14-25.25 95.04-25.25L95.04-25.25Q96.99-25.25 98.04-24.58 99.09-23.9 99.09-22.7ZM96.24-8.95L98.64-20.25Q98.64-21 98.09-21.58 97.54-22.15 96.59-22.15L96.59-22.15Q93.84-22.15 91.71-17.55 89.59-12.95 89.59-8.45L89.59-8.45Q89.59-6.5 90.14-5.53 90.69-4.55 92.09-4.55L92.09-4.55Q93.39-4.55 94.61-5.8 95.84-7.05 96.24-8.95L96.24-8.95ZM121.29-5.35L121.29-5.35Q121.29-6.25 121.51-7.6 121.74-8.95 122.44-11.9L122.44-11.9Q123.14-14.75 123.34-16 123.54-17.25 123.54-18.1L123.54-18.1Q123.54-19.35 123.09-20 122.64-20.65 121.74-20.65L121.74-20.65Q120.54-20.65 119.51-19.43 118.48-18.2 117.84-16.05L117.84-16.05 114.44 0 107.23 0 112.54-25 119.74-25 119.19-22.4Q120.44-23.8 121.89-24.5 123.34-25.2 125.04-25.2L125.04-25.2Q127.69-25.2 129.13-23.75 130.59-22.3 130.59-19.55L130.59-19.55Q130.59-18.4 130.31-16.82 130.03-15.25 129.24-12L129.24-12Q128.59-9.45 128.38-8.4 128.19-7.35 128.19-6.65L128.19-6.65Q128.19-5.6 128.69-5.08 129.19-4.55 130.19-4.55L130.19-4.55Q131.44-4.55 132.34-5.4 133.24-6.25 134.38-8.95L134.38-8.95 136.49-8.95Q134.88-4.3 132.61-2 130.34 0.3 127.19 0.3L127.19 0.3Q124.39 0.3 122.84-1.23 121.29-2.75 121.29-5.35ZM141.23-8.45L141.23-8.45Q141.23-6.5 141.78-5.53 142.33-4.55 143.73-4.55L143.73-4.55Q144.98-4.55 146.18-5.73 147.38-6.9 147.83-8.7L147.83-8.7 147.83-8.95 150.28-20.4Q150.13-21.2 149.61-21.68 149.08-22.15 148.23-22.15L148.23-22.15Q145.48-22.15 143.36-17.55 141.23-12.95 141.23-8.45ZM150.73-22.7L150.73-22.7 150.73-22.5 153.18-34 160.58-35 154.83-8Q154.73-7.55 154.68-7.18 154.63-6.8 154.63-6.4L154.63-6.4Q154.63-5.4 155.11-4.98 155.58-4.55 156.68-4.55L156.68-4.55Q157.98-4.55 159.03-5.7 160.08-6.85 160.73-8.95L160.73-8.95 162.83-8.95Q161.28-4.5 158.81-2.25 156.33 0 152.78 0L152.78 0Q150.73 0 149.46-1.13 148.18-2.25 147.88-4.3L147.88-4.3Q146.38-2 144.53-0.85 142.68 0.3 140.48 0.3L140.48 0.3Q137.38 0.3 135.61-1.8 133.83-3.9 133.83-7.75L133.83-7.75Q133.83-10.55 134.68-13.6 135.53-16.65 137.03-19.15L137.03-19.15Q138.88-22.1 141.33-23.68 143.78-25.25 146.68-25.25L146.68-25.25Q148.63-25.25 149.68-24.58 150.73-23.9 150.73-22.7ZM187.28-8.35L187.28-8.35Q187.28-7.75 187.23-7.3 187.18-6.85 187.08-6.45L187.08-6.45Q188.08-7.05 189.03-7.7 189.98-8.35 190.68-8.95L190.68-8.95 192.78-8.95Q191.23-7.15 189.35-5.63 187.48-4.1 185.13-2.7L185.13-2.7Q183.78-1.25 181.68-0.48 179.58 0.3 177.28 0.3L177.28 0.3Q173.93 0.3 171.95-1.53 169.98-3.35 169.98-6.1L169.98-6.1Q169.98-7.65 170.73-8.93 171.48-10.2 172.63-10.75L172.63-10.75Q174.33-13.8 175.8-17.28 177.28-20.75 178.78-25.55L178.78-25.55 186.18-26.55Q186.33-22.8 186.53-19.7 186.73-16.6 187.03-12.95L187.03-12.95Q187.18-10.85 187.23-10 187.28-9.15 187.28-8.35ZM179.08-20.15L179.08-20.15Q178.43-18.1 177.5-15.88 176.58-13.65 175.03-10.7L175.03-10.7Q175.58-10.45 175.88-10 176.18-9.55 176.18-8.95L176.18-8.95Q176.18-8 175.53-7.25 174.88-6.5 173.98-6.5L173.98-6.5Q173.48-6.5 173.13-6.68 172.78-6.85 172.63-7.15L172.63-7.15Q172.63-5.3 173.35-4.48 174.08-3.65 175.68-3.65L175.68-3.65Q177.73-3.65 178.88-4.85 180.03-6.05 180.03-8.3L180.03-8.3Q180.03-9 179.98-9.73 179.93-10.45 179.78-12.15L179.78-12.15Q179.53-14.5 179.38-16.3 179.23-18.1 179.08-20.15ZM203.02-31.65L203.02-31.65Q203.02-30 201.85-28.85 200.67-27.7 199.02-27.7L199.02-27.7Q197.37-27.7 196.22-28.85 195.07-30 195.07-31.65L195.07-31.65Q195.07-33.3 196.22-34.48 197.37-35.65 199.02-35.65L199.02-35.65Q200.67-35.65 201.85-34.48 203.02-33.3 203.02-31.65ZM190.27-5.7L190.27-5.7Q190.27-6.35 190.37-7.18 190.47-8 190.67-8.95L190.67-8.95 194.07-25 201.27-25 197.67-8Q197.57-7.55 197.52-7.18 197.47-6.8 197.47-6.4L197.47-6.4Q197.47-5.4 197.95-4.98 198.42-4.55 199.52-4.55L199.52-4.55Q200.92-4.55 202.17-5.78 203.42-7 204.02-8.95L204.02-8.95 206.12-8.95Q204.52-4.4 201.82-2.05 199.12 0.3 195.62 0.3L195.62 0.3Q193.12 0.3 191.7-1.28 190.27-2.85 190.27-5.7ZM228.52-5.35L228.52-5.35Q228.52-6.25 228.75-7.6 228.97-8.95 229.67-11.9L229.67-11.9Q230.37-14.75 230.57-16 230.77-17.25 230.77-18.1L230.77-18.1Q230.77-19.35 230.32-20 229.87-20.65 228.97-20.65L228.97-20.65Q227.77-20.65 226.75-19.43 225.72-18.2 225.07-16.05L225.07-16.05 221.67 0 214.47 0 218.12-17.25Q218.22-17.55 218.25-17.85 218.27-18.15 218.27-18.5L218.27-18.5Q218.27-19.5 217.87-20.1 217.47-20.7 216.77-20.7L216.77-20.7Q215.47-20.7 214.42-19.48 213.37-18.25 212.72-16.05L212.72-16.05 209.32 0 202.12 0 207.42-25 214.62-25 214.07-22.4Q215.32-23.85 216.82-24.55 218.32-25.25 220.17-25.25L220.17-25.25Q222.37-25.25 223.65-24.18 224.92-23.1 225.32-20.95L225.32-20.95Q226.72-23.1 228.42-24.15 230.12-25.2 232.27-25.2L232.27-25.2Q234.92-25.2 236.37-23.75 237.82-22.3 237.82-19.55L237.82-19.55Q237.82-18.4 237.55-16.82 237.27-15.25 236.47-12L236.47-12Q235.82-9.45 235.62-8.4 235.42-7.35 235.42-6.65L235.42-6.65Q235.42-5.6 235.92-5.08 236.42-4.55 237.42-4.55L237.42-4.55Q238.67-4.55 239.57-5.4 240.47-6.25 241.62-8.95L241.62-8.95 243.72-8.95Q242.12-4.3 239.85-2 237.57 0.3 234.42 0.3L234.42 0.3Q231.62 0.3 230.07-1.23 228.52-2.75 228.52-5.35ZM250.97-19.2L248.02-5.2Q248.22-4.65 248.72-4.35 249.22-4.05 249.92-4.05L249.92-4.05Q253.07-4.05 254.99-8.1 256.92-12.15 256.92-17.5L256.92-17.5Q256.92-19.55 256.32-20.6 255.72-21.65 254.42-21.65L254.42-21.65Q253.52-21.65 252.57-20.98 251.62-20.3 250.97-19.2L250.97-19.2ZM247.22-1.5L244.62 10.7 237.07 12.5 245.42-26.85 252.62-26.85 251.82-23.1Q253.07-24.15 254.52-24.7 255.97-25.25 257.67-25.25L257.67-25.25Q260.67-25.25 262.22-23.25 263.77-21.25 263.77-17.35L263.77-17.35Q263.77-9.7 260.5-4.7 257.22 0.3 251.47 0.3L251.47 0.3Q249.87 0.3 248.79-0.15 247.72-0.6 247.22-1.5L247.22-1.5ZM264.62-5.7L264.62-5.7Q264.62-6.35 264.72-7.18 264.82-8 265.02-8.95L265.02-8.95 270.37-34 277.77-35 272.02-8Q271.92-7.55 271.87-7.18 271.82-6.8 271.82-6.4L271.82-6.4Q271.82-5.4 272.29-4.98 272.77-4.55 273.87-4.55L273.87-4.55Q275.27-4.55 276.52-5.78 277.77-7 278.37-8.95L278.37-8.95 280.47-8.95Q278.87-4.4 276.17-2.05 273.47 0.3 269.97 0.3L269.97 0.3Q267.47 0.3 266.04-1.28 264.62-2.85 264.62-5.7ZM295.92-20.65L295.92-20.65Q295.92-16.5 292.51-13.43 289.12-10.35 284.42-10.1L284.42-10.1Q284.37-9.25 284.34-8.83 284.31-8.4 284.31-8.1L284.31-8.1Q284.31-5.8 285.09-4.85 285.87-3.9 287.92-3.9L287.92-3.9Q290.26-3.9 292.24-4.98 294.21-6.05 296.76-8.95L296.76-8.95 298.46-8.95Q295.56-4.25 292.17-1.98 288.76 0.3 284.71 0.3L284.71 0.3Q280.87 0.3 278.89-1.7 276.92-3.7 276.92-7.65L276.92-7.65Q276.92-10.5 277.81-13.7 278.71-16.9 280.21-19.4L280.21-19.4Q282.06-22.4 284.64-23.93 287.21-25.45 290.42-25.45L290.42-25.45Q293.17-25.45 294.54-24.28 295.92-23.1 295.92-20.65ZM290.81-22.8L290.81-22.8Q289.12-22.8 287.39-19.78 285.67-16.75 284.81-12.5L284.81-12.5Q287.71-12.7 289.89-15.18 292.06-17.65 292.06-20.75L292.06-20.75Q292.06-21.8 291.76-22.3 291.46-22.8 290.81-22.8Z" opacity="1" transform="matrix(1,0,0,1,0,0)" fill="#1c4b82" class="undefined-text-1" data-fill-palette-color="secondary" id="text-1"></path></svg></g></svg></g></svg></g></svg></g></svg></g><defs></defs></svg><rect width="358.0821910490574" height="103.04639215079999" fill="none" stroke="none" visibility="hidden"></rect></g></svg></g></svg>